<svg xmlns="http://www.w3.org/2000/svg" viewBox="0 0 99.81 47.48"><defs><style>.cls-1{fill:#e71712;}</style></defs><title>logo</title><g id="Layer_2" data-name="Layer 2"><g id="Layer_1-2" data-name="Layer 1"><path class="cls-1" d="M20.19,40.56A16.83,16.83,0,1,1,26.41,8.09V0H0V47.48H26.41v-8.1A16.87,16.87,0,0,1,20.19,40.56Z"/><path class="cls-1" d="M35.1,19.51a6.75,6.75,0,0,0-1.92-1.16A6,6,0,0,0,31.06,18a4.67,4.67,0,0,0-3.5,1.38,4.86,4.86,0,0,0-1.36,3.58,4.87,4.87,0,0,0,1.32,3.51,4.39,4.39,0,0,0,3.32,1.38,6.2,6.2,0,0,0,2.22-.41,7,7,0,0,0,2-1.25v2.42a6.27,6.27,0,0,1-1.87.92,7.74,7.74,0,0,1-2.2.31,7.65,7.65,0,0,1-2.79-.5,6.56,6.56,0,0,1-3.73-3.67A7.32,7.32,0,0,1,24,22.91a7.18,7.18,0,0,1,.51-2.71A6.64,6.64,0,0,1,26,18a6.51,6.51,0,0,1,2.24-1.47A7.49,7.49,0,0,1,31,16a7,7,0,0,1,2.21.34,7.5,7.5,0,0,1,2,1Z"/><path class="cls-1" d="M39.53,16.32h2.11v8A3.79,3.79,0,0,0,42.46,27a3.17,3.17,0,0,0,2.46.9,3.14,3.14,0,0,0,2.44-.9,3.79,3.79,0,0,0,.82-2.67v-8h2.14v8.17a5.35,5.35,0,0,1-1.35,4,5.56,5.56,0,0,1-4,1.33,5.55,5.55,0,0,1-4.05-1.32,5.4,5.4,0,0,1-1.34-4Z"/><path class="cls-1" d="M57.1,23.58v5.88h-2V16.32h3a8.89,8.89,0,0,1,2,.17,3,3,0,0,1,2.18,1.79,4.05,4.05,0,0,1,.33,1.65,3.7,3.7,0,0,1-.76,2.48,3.38,3.38,0,0,1-2.25,1.07l4.52,6H61.72l-4.37-5.88Zm.14-1.66h.38a4.36,4.36,0,0,0,2.26-.4,1.6,1.6,0,0,0,.55-1.4,1.82,1.82,0,0,0-.59-1.53,3.93,3.93,0,0,0-2.22-.44h-.38Z"/><path class="cls-1" d="M71.41,30,65.55,16.32h2.21l2.95,7c.17.4.32.78.43,1.12s.2.67.27,1c.08-.33.17-.67.29-1a11.53,11.53,0,0,1,.43-1.08l2.93-7h2.21Z"/><path class="cls-1" d="M80.44,29.46V16.32h7.33v1.81h-5.2v3.29h5.2V23.3h-5.2v4.24h5.2v1.92Z"/><path class="cls-1" d="M91.3,26.83,93,26a2.37,2.37,0,0,0,.89,1.34,2.75,2.75,0,0,0,1.65.46,2.12,2.12,0,0,0,1.51-.53,1.84,1.84,0,0,0,.56-1.42c0-.77-.64-1.46-1.92-2.06l-.41-.2a9.31,9.31,0,0,1-2.9-1.92,3.14,3.14,0,0,1-.72-2.09A3.34,3.34,0,0,1,92.76,17a4.06,4.06,0,0,1,2.86-1,4.85,4.85,0,0,1,2.43.56,2.91,2.91,0,0,1,1.36,1.61l-1.67.86a2.69,2.69,0,0,0-.87-.9,1.94,1.94,0,0,0-1.08-.29,2,2,0,0,0-1.37.45,1.51,1.51,0,0,0-.5,1.2c0,.79.74,1.53,2.22,2.21l.27.12a8,8,0,0,1,2.68,1.76,3.2,3.2,0,0,1,.72,2.14,3.9,3.9,0,0,1-1.17,3,5.19,5.19,0,0,1-5.93.32A3.58,3.58,0,0,1,91.3,26.83Z"/></g></g></svg>