<?xml version="1.0" encoding="utf-8"?>
<!-- Generator: Adobe Illustrator 24.0.0, SVG Export Plug-In . SVG Version: 6.00 Build 0)  -->
<svg version="1.1" id="Layer_1" xmlns="http://www.w3.org/2000/svg" xmlns:xlink="http://www.w3.org/1999/xlink" x="0px" y="0px"
	 viewBox="0 0 165 24" style="enable-background:new 0 0 165 24;" xml:space="preserve">
<style type="text/css">
	.st0{fill:#E71712;}
</style>
<g>
	<path class="st0" d="M65,14.3c-0.7-0.2-1.3-0.3-2-0.5c-1-0.2-1.9-0.3-2.9-0.3c-0.9,0-1.7,0.2-2.6,0.4c-1.7,0.4-3.3,1-4.9,1.7
		c-2.1,0.9-4.1,1.9-6.1,2.9c-1.8,0.9-3.5,1.8-5.3,2.6c-1.4,0.6-2.9,1.2-4.4,1.7c-1,0.3-1.9,0.5-2.9,0.7c-0.5,0.1-1,0.1-1.5,0.1
		c-0.4,0-0.9,0.1-1.3,0.1c-2.5,0-4.9-0.8-7-2.2c-1.7-1.1-3.1-2.5-4.2-4.2c-0.8-1.2-1.3-2.5-1.6-3.9C18,12.6,18,11.7,18,10.7
		c0.1-1.5,0.5-2.9,1.2-4.3c0.5-1,1.3-1.9,2.1-2.7C23.3,2,25.5,1,28.1,0.4c0.8-0.2,1.6-0.3,2.5-0.3C31,0,31.5,0,31.9,0
		c0.4,0,0.8,0.1,1.3,0.1c0.6,0.1,1.2,0.2,1.9,0.3c1.6,0.3,3.1,0.6,4.6,1.2c1.3,0.5,2.6,1,3.8,1.8c0.3,0.2,0.6,0.4,1,0.7c0,0,0,0,0,0
		c-0.1,0-0.1-0.1-0.2-0.1c-2.2-1.3-4.5-2.2-7-2.8c-0.9-0.2-1.9-0.4-2.8-0.5c-1.1-0.1-2.2-0.2-3.3-0.1c-1.7,0.1-3.3,0.4-4.8,1
		c-1.4,0.6-2.7,1.4-3.8,2.4c-1,0.9-1.9,1.9-2.5,3.1c-0.4,0.9-0.7,1.8-0.8,2.7c-0.3,2.6,0.2,5,1.8,7.1c1.6,2.1,3.7,3.6,6.3,4.4
		c0.9,0.3,1.8,0.4,2.7,0.5c0.7,0,1.3,0.1,2,0.1c0.9,0,1.7-0.2,2.6-0.4c1.8-0.4,3.5-1.1,5.2-1.8c2-0.9,3.9-1.8,5.8-2.8
		c2.2-1.1,4.4-2.2,6.6-3.1c1.1-0.5,2.3-0.9,3.5-1.1c0.7-0.1,1.4-0.2,2.1-0.3c0.5,0,1,0,1.5,0c0.8,0,1.7,0.2,2.5,0.4
		c1.1,0.3,2.1,0.7,3.1,1.3C64.8,14.2,64.9,14.3,65,14.3z"/>
	<path class="st0" d="M41.4,23c0.4,0,0.8,0,1.1,0.1c1.4,0.2,2.7,0,4-0.5c1-0.3,1.9-0.8,2.8-1.4c1.3-0.8,2.6-1.7,3.9-2.5
		c1.1-0.7,2.2-1.3,3.4-1.8c0.7-0.3,1.4-0.5,2.1-0.6c0.5,0,1,0,1.4,0c0.8,0,1.6,0.2,2.4,0.4c1.2,0.4,2.4,0.9,3.4,1.7
		c0.1,0.1,0.2,0.2,0.4,0.3c-0.2,0.1-0.2,0.1-0.3,0c-0.6-0.3-1.3-0.6-1.9-0.9c-0.6-0.3-1.2-0.4-1.8-0.5c-1-0.1-1.9,0.1-2.8,0.4
		c-1.1,0.4-2.1,0.9-3.1,1.5c-1.1,0.7-2.1,1.4-3.1,2c-0.9,0.6-1.9,1.2-2.9,1.7c-0.9,0.4-1.8,0.7-2.8,0.8c-1,0.1-2.1,0.1-3.1-0.1
		C43.5,23.7,42.5,23.4,41.4,23C41.4,23.1,41.4,23.1,41.4,23z"/>
</g>
</svg>
